<?xml version="1.0" standalone="no"?>
<!DOCTYPE svg PUBLIC "-//W3C//DTD SVG 20010904//EN"
 "http://www.w3.org/TR/2001/REC-SVG-20010904/DTD/svg10.dtd">
<svg version="1.0" xmlns="http://www.w3.org/2000/svg"
 width="1000.000000pt" height="623.000000pt" viewBox="0 0 1000.000000 623.000000"
 preserveAspectRatio="xMidYMid meet">
<metadata>
Created by potrace 1.16, written by Peter Selinger 2001-2019
</metadata>
<g transform="translate(0.000000,623.000000) scale(0.100000,-0.100000)"
fill="#000000" stroke="none">
<path d="M4076 5269 l-26 -31 0 -2123 0 -2123 26 -31 26 -31 149 0 c146 0 151
1 174 25 l25 24 0 2136 0 2136 -25 24 c-23 24 -28 25 -174 25 l-149 0 -26 -31z"/>
<path d="M6257 5272 c-35 -13 -132 -88 -382 -301 -185 -156 -347 -297 -360
-313 -14 -16 -29 -46 -35 -67 -7 -27 -9 -600 -8 -1777 l3 -1739 24 -41 c13
-24 41 -52 65 -65 l41 -24 490 0 c452 0 493 1 525 18 59 31 733 599 755 637
19 33 20 55 23 363 3 319 3 327 22 317 44 -24 45 -27 50 -630 l5 -575 24 -41
c13 -24 41 -52 65 -65 l41 -24 490 0 c437 0 493 2 520 17 17 9 188 147 380
307 289 240 354 299 375 338 l25 47 3 746 c2 466 -1 789 -7 861 -20 213 -77
346 -206 474 -92 92 -182 143 -305 172 -41 9 -77 18 -79 19 -2 2 110 263 249
581 269 615 280 646 246 711 -35 68 -26 67 -576 67 -486 0 -496 0 -542 -22
-47 -22 -731 -592 -761 -635 -15 -21 -16 -5 -17 232 0 153 -5 271 -11 295 -14
51 -73 110 -124 124 -27 7 -194 11 -500 11 -408 -1 -465 -3 -508 -18z m1001
-62 c33 -15 47 -29 62 -62 19 -41 20 -71 20 -660 l0 -618 108 0 107 0 270 612
c149 336 282 631 296 653 18 28 43 50 75 66 l49 24 450 3 c306 2 462 0 487 -8
45 -13 72 -55 62 -97 -4 -16 -125 -299 -270 -631 -145 -332 -264 -607 -264
-611 0 -5 33 -13 73 -20 141 -23 249 -72 350 -160 57 -51 133 -173 164 -264
l28 -82 3 -843 c3 -952 7 -897 -72 -933 -38 -17 -75 -19 -496 -19 -502 0 -498
0 -544 63 -21 28 -21 42 -26 605 -5 557 -6 578 -25 612 -40 69 -46 70 -457 70
l-368 0 -2 -622 c-3 -680 -1 -658 -61 -702 -28 -21 -37 -21 -512 -21 -473 0
-484 0 -512 21 -15 11 -36 36 -45 55 -17 32 -18 136 -18 1744 0 1101 4 1723
10 1746 11 41 42 72 85 87 19 7 193 11 480 11 425 1 452 -1 493 -19z"/>
<path d="M6740 3395 l0 -1385 30 0 30 0 0 675 0 675 713 0 c429 0 745 -4 795
-10 111 -14 198 -43 263 -86 67 -45 95 -79 128 -157 l26 -62 3 -517 3 -518 30
0 30 0 -3 528 c-3 512 -4 529 -25 584 -79 210 -234 286 -606 296 -133 3 -187
8 -184 16 3 6 132 304 287 661 155 358 284 658 287 668 4 14 -1 17 -28 17
l-34 0 -244 -568 c-135 -312 -267 -618 -294 -679 l-49 -113 -549 0 -549 0 0
680 0 680 -30 0 -30 0 0 -1385z"/>
<path d="M1705 4320 c-118 -24 -240 -93 -323 -184 -59 -65 -124 -192 -141
-274 -14 -66 -14 -435 -1 -481 12 -42 62 -96 113 -122 l37 -19 0 -71 c0 -71
20 -130 54 -158 10 -9 16 -30 16 -56 l0 -43 -77 -30 c-43 -16 -113 -42 -155
-58 l-78 -29 0 -93 0 -93 -35 -30 c-84 -74 -33 -209 79 -209 113 0 164 136 79
210 -33 29 -34 33 -31 92 l3 62 150 57 150 56 3 54 3 55 34 -4 35 -4 0 -59 0
-59 -80 -40 -80 -40 0 -69 c0 -66 -2 -71 -35 -104 -31 -31 -35 -41 -35 -86 0
-41 5 -56 28 -82 37 -42 110 -51 159 -20 66 41 67 162 2 199 -25 15 -29 23
-29 62 l0 46 80 39 80 39 0 88 0 88 35 0 35 0 0 -174 c0 -168 -1 -175 -21
-181 -50 -16 -74 -107 -44 -165 41 -79 169 -79 210 0 30 58 6 149 -44 165 -20
6 -21 13 -21 181 l0 174 35 0 35 0 0 -88 0 -88 80 -39 80 -39 0 -47 c0 -39 -4
-49 -21 -54 -28 -9 -59 -63 -59 -103 0 -78 58 -128 139 -119 65 7 101 49 101
118 0 45 -4 55 -35 86 -33 33 -35 38 -35 104 l0 69 -80 40 -80 40 0 59 0 59
35 4 34 4 3 -55 3 -54 150 -56 150 -57 3 -61 c3 -60 2 -63 -35 -97 -35 -31
-38 -39 -38 -86 0 -47 3 -55 37 -86 31 -28 45 -34 82 -34 115 0 164 140 75
214 -28 24 -29 27 -29 118 l0 93 -77 29 c-43 16 -113 42 -155 58 l-78 30 0 43
c0 26 6 47 16 56 34 28 54 87 54 158 l0 71 38 19 c50 26 98 81 113 129 7 26
10 110 7 258 -4 205 -6 223 -30 286 -38 100 -85 173 -156 239 -134 126 -338
185 -517 149z m240 -95 c87 -23 152 -62 225 -135 126 -126 150 -202 150 -478
0 -229 -2 -234 -89 -281 l-61 -32 0 -75 c0 -90 -18 -137 -62 -164 -31 -19 -50
-20 -288 -20 -238 0 -257 1 -288 20 -44 27 -62 74 -62 164 l0 75 -61 32 c-87
47 -89 52 -89 281 0 212 10 272 58 362 34 66 143 174 208 208 105 57 243 73
359 43z"/>
<path d="M1463 3844 c-55 -27 -73 -68 -73 -167 0 -82 2 -88 30 -121 37 -42 87
-60 146 -53 53 6 168 84 198 136 40 69 14 169 -54 203 -47 24 -201 25 -247 2z
m223 -99 c23 -35 10 -60 -58 -111 -72 -53 -106 -57 -138 -16 -18 22 -21 36
-17 76 6 66 22 76 119 76 71 0 79 -2 94 -25z"/>
<path d="M1933 3845 c-18 -8 -41 -28 -52 -46 -53 -87 -27 -164 82 -243 100
-73 186 -74 253 -5 27 28 29 37 32 119 3 77 1 94 -17 124 -32 50 -73 66 -178
66 -53 -1 -101 -6 -120 -15z m211 -88 c12 -9 20 -31 23 -63 4 -40 1 -54 -17
-76 -32 -41 -66 -37 -138 16 -68 51 -81 76 -58 111 15 23 23 25 94 25 49 0 85
-5 96 -13z"/>
<path d="M1620 3355 c0 -34 -1 -35 -40 -35 l-40 0 0 -45 0 -45 40 0 40 0 0
-40 0 -40 45 0 45 0 0 40 c0 39 1 40 35 40 34 0 35 -1 35 -40 l0 -40 40 0 40
0 0 40 c0 39 1 40 35 40 34 0 35 -1 35 -40 l0 -40 45 0 45 0 0 40 0 40 40 0
40 0 0 45 0 45 -40 0 c-39 0 -40 1 -40 35 0 35 0 35 -45 35 -45 0 -45 0 -45
-35 0 -33 -2 -35 -35 -35 -33 0 -35 2 -35 35 0 34 -1 35 -40 35 -39 0 -40 -1
-40 -35 0 -33 -2 -35 -35 -35 -33 0 -35 2 -35 35 0 35 0 35 -45 35 -45 0 -45
0 -45 -35z"/>
<path d="M789 3800 c-47 -25 -86 -71 -99 -118 -6 -24 -10 -267 -10 -674 l0
-638 45 0 45 0 0 639 0 638 23 34 c32 48 71 58 230 58 l137 1 0 40 0 40 -167
0 c-146 -1 -173 -3 -204 -20z"/>
<path d="M2480 3781 l0 -39 153 -4 c166 -4 186 -10 217 -61 19 -31 20 -56 20
-669 l0 -638 45 0 45 0 0 639 c0 673 0 676 -47 739 -47 62 -82 72 -268 72
l-165 0 0 -39z"/>
<path d="M885 3658 c-46 -25 -45 -8 -45 -665 l0 -623 45 0 45 0 0 605 0 605
115 0 115 0 0 45 0 45 -127 0 c-73 0 -137 -5 -148 -12z"/>
<path d="M2480 3625 l0 -45 115 0 115 0 0 -605 0 -605 45 0 45 0 0 619 c0 341
-3 627 -6 636 -13 34 -58 45 -189 45 l-125 0 0 -45z"/>
<path d="M602 2171 c3 -122 5 -131 33 -177 20 -31 45 -56 74 -71 l45 -23 1076
2 1077 3 40 28 c69 48 86 91 91 239 l5 128 -402 0 -401 0 0 -45 0 -45 355 0
355 0 0 -61 c0 -73 -22 -124 -61 -144 -42 -22 -2096 -22 -2138 0 -39 20 -61
71 -61 144 l0 61 355 0 355 0 0 45 0 45 -401 0 -401 0 4 -129z"/>
<path d="M1462 2218 c5 -90 20 -127 64 -146 35 -16 553 -16 588 0 44 19 59 56
64 146 l5 82 -363 0 -363 0 5 -82z m628 -27 c0 -48 -15 -51 -270 -51 -255 0
-270 3 -270 51 0 18 10 19 270 19 260 0 270 -1 270 -19z"/>
</g>
</svg>
